<svg xmlns="http://www.w3.org/2000/svg" xmlns:xlink="http://www.w3.org/1999/xlink" viewBox="0 0 1001.9 1008.91"><defs><style>.cls-1{fill:#fff;}.cls-2{fill:url(#GradientFill_2);}.cls-3,.cls-5{fill:#3d3d3d;}.cls-4{fill:url(#GradientFill_2-2);}.cls-5{stroke:#3d3d3d;stroke-miterlimit:10;}.cls-6{fill:url(#GradientFill_2-3);}.cls-7{fill:#343433;}</style><linearGradient id="GradientFill_2" x1="-617.69" y1="553.63" x2="1636.57" y2="553.63" gradientUnits="userSpaceOnUse"><stop offset="0" stop-color="#fff584"/><stop offset="0.26" stop-color="#bf933a"/><stop offset="0.46" stop-color="#c79f47"/><stop offset="0.75" stop-color="#fff8ad"/><stop offset="1" stop-color="#c79f47"/></linearGradient><linearGradient id="GradientFill_2-2" x1="-1082.27" y1="-296.7" x2="1138.69" y2="973.74" xlink:href="#GradientFill_2"/><linearGradient id="GradientFill_2-3" x1="329.18" y1="181.93" x2="672.72" y2="181.93" xlink:href="#GradientFill_2"/></defs><title>Asset 3</title><g id="Layer_2" data-name="Layer 2"><g id="icon_badge" data-name="icon badge"><path class="cls-1" d="M106.66,781.27V726c-29.93,4.85-49.53,9.47-62.1,12.65a23.69,23.69,0,0,1-5.8.72c-11.87,0-21.55-8.84-21.83-19.82L0,508.93v-.41c0-9.56,7-17.7,17-19.8,14.18-3,44.08-8.7,89.64-14.89V326L320.2,202.7A185,185,0,0,1,319,181.92C319,81.61,400.64,0,501,0S682.87,81.61,682.87,181.92a185,185,0,0,1-1.17,20.78L895.24,326V473.83c45.56,6.19,75.46,11.93,89.64,14.9,10,2.09,17,10.23,17,19.79v.41L985,719.52A19.72,19.72,0,0,1,977.9,734a22.78,22.78,0,0,1-14.76,5.33h0a23.69,23.69,0,0,1-5.8-.72c-12.56-3.18-32.17-7.8-62.1-12.65v55.3L501,1008.91Z"/><polygon class="cls-2" points="885.08 775.41 885.08 331.85 500.95 110.07 116.81 331.85 116.81 775.41 500.95 997.19 885.08 775.41"/><polygon class="cls-3" points="864.82 763.71 864.82 343.55 500.95 133.47 137.08 343.55 137.08 763.71 500.95 973.78 864.82 763.71"/><path class="cls-4" d="M974.82,719c0,6.76-7.49,11.63-15,9.74C918.85,718.4,804,692.84,501,692.84S83.05,718.4,42.06,728.78c-7.49,1.89-15-3-15-9.74L10.15,508.52c0-4.68,3.69-8.76,9-9.86C57.66,490.59,220.62,460.4,501,460.4s443.29,30.19,481.85,38.26c5.26,1.1,9,5.18,9,9.86Z"/><path class="cls-5" d="M150.85,604.46c-1.92-11.68-4.16-25.82-6-40l-.43.06c-1.46,12.84-3.76,27.26-6.07,39.18l-7,39.6-17.23,2.18L98.89,609c-4.64-11-9.74-24.52-13.67-37l-.29,0c1.09,13.26,2.57,28.37,3.39,40.63l3,37.3-20.42,2.59L64.7,554.17l29.4-3.73,13.7,31.37c4.48,10.92,9.06,22.7,12.69,33.86l.43,0c1.32-11.65,3-25,4.82-36.23l6.31-33.77L160.87,542l17.75,96.94L157,641.64Z"/><path class="cls-5" d="M208.81,537.84l4.53,56.47c1.35,16.88,8.44,25,19.8,24,11.64-.93,17.39-9.59,16-26.91L244.61,535l22.12-1.78,4.41,55c2.43,30.27-11.69,45.9-37.31,48-24.74,2-40.39-10.53-42.9-41.82l-4.39-54.72Z"/><path class="cls-5" d="M292.7,607.34a56.73,56.73,0,0,0,24.95,4.88c10.21-.51,15.39-5,15.07-11.42-.31-6.13-5.15-9.39-17.18-13-16.61-4.87-27.71-13.37-28.43-27.66-.84-16.77,12.51-30.3,35.7-31.47,11.08-.56,19.36,1.37,25.32,3.7l-4.05,18.18a46.81,46.81,0,0,0-20.8-3.63c-9.62.48-14.07,5.09-13.81,10.2.32,6.26,6,8.76,18.92,12.93,17.68,5.55,26.3,14.18,27,28,.83,16.48-11.15,31.11-38.13,32.47-11.23.56-22.45-1.8-28.15-4.58Z"/><path class="cls-5" d="M388.15,546.37l-26.42.7-.5-18.68,75.6-2,.5,18.68-26.85.72,2.13,79.69-22.33.6Z"/><path class="cls-5" d="M474.6,578.79l.18,14.74-38.25.45-.18-14.74Z"/><path class="cls-5" d="M501,624.24,478.69,525.6l23.8.25,7,40.66c2.07,11.7,4,24.43,5.49,34.37h.29c1.71-10.64,4.17-22.44,6.78-34.53l8.73-40.21,23.65.24,7.46,41.54C564,579.48,565.49,590,566.84,601h.29c1.57-10.94,3.88-22.45,6-34.11l8.44-40.21,22.63.23L577.84,625l-24.09-.25-7.89-42.42c-1.8-10-3.31-19.16-4.36-30.42h-.29c-1.87,11.08-3.57,20.41-6,30.31l-9.78,42.24Z"/><path class="cls-5" d="M630.08,601.37l-8,25L599,625.42l34-97.14,29.18,1.15L688.75,629l-23.93-1-6.59-25.54Zm25.6-15.64-5.3-21.11c-1.52-5.9-3-13.27-4.21-19.16h-.29c-1.69,5.77-3.44,13.16-5.27,18.78L634,584.86Z"/><path class="cls-5" d="M713.16,550.79l-26.37-1.67L688,530.47l75.48,4.79-1.18,18.65-26.81-1.7-5.05,79.55-22.3-1.41Z"/><path class="cls-5" d="M836.32,637.87c-4.26,1.66-13.62,3-25.54,1.91C776.9,636.67,761.39,614,764,586.07c3.07-33.44,28.62-49.86,58.28-47.14,11.48,1.06,20,4.19,23.73,6.58l-6.12,17.18a48.12,48.12,0,0,0-18.28-5.34c-17.59-1.62-32.23,7.74-34.23,29.55-1.8,19.62,8.69,33.05,28.46,34.87a55.54,55.54,0,0,0,18.76-1.51Z"/><path class="cls-5" d="M884.78,547.43l-5,37.49,36.33,4.85,5-37.48,22,2.94-13,97.54-22-2.94L913.52,609l-36.32-4.86L871.74,645l-22.14-3,13-97.54Z"/><path class="cls-6" d="M672.72,181.92A171.77,171.77,0,1,1,501,10.16,171.77,171.77,0,0,1,672.72,181.92Z"/><path class="cls-7" d="M639.3,181.92A138.35,138.35,0,1,1,501,43.58,138.36,138.36,0,0,1,639.3,181.92Z"/><path class="cls-1" d="M418.87,224.73c-11-11-20.49-19.77-28.76-27.33l23.19-23.19,13.13,11,.54-.53c-2-9.53-2.34-25.71,12.58-40.64,11.51-11.5,26.25-14.38,39.2-9l.35-.36a54.38,54.38,0,0,1,.72-22.3,47.38,47.38,0,0,1,12.41-21c16.9-16.91,41.54-17.8,67.78,8.45l51.78,51.78-26.6,26.6-47.65-47.64c-12.77-12.77-24.27-16-33.08-7.2-6.48,6.48-6.48,15.11-3.24,22.3a39.89,39.89,0,0,0,5.94,7.74l51.42,51.42L532,231.39,482.7,182.11c-11-11-22.47-14.55-31.28-5.74-7,7-5.76,16.54-3.06,22.47a26.15,26.15,0,0,0,5.93,8.09L505.35,258l-26.6,26.61Z"/></g></g></svg>