<svg xmlns="http://www.w3.org/2000/svg" xmlns:xlink="http://www.w3.org/1999/xlink" viewBox="0 0 50 50.35"><defs><style>.cls-1{fill:#fff;}.cls-2{fill:url(#GradientFill_2);}.cls-3{fill:#3d3d3d;}.cls-4{fill:url(#GradientFill_2-2);}.cls-5{fill:url(#GradientFill_2-3);}.cls-6{fill:#343433;}</style><linearGradient id="GradientFill_2" x1="-30.83" y1="27.63" x2="81.67" y2="27.63" gradientUnits="userSpaceOnUse"><stop offset="0" stop-color="#fff584"/><stop offset="0.26" stop-color="#bf933a"/><stop offset="0.46" stop-color="#c79f47"/><stop offset="0.75" stop-color="#fff8ad"/><stop offset="1" stop-color="#c79f47"/></linearGradient><linearGradient id="GradientFill_2-2" x1="-54.01" y1="-14.81" x2="56.83" y2="48.59" xlink:href="#GradientFill_2"/><linearGradient id="GradientFill_2-3" x1="16.43" y1="9.08" x2="33.57" y2="9.08" xlink:href="#GradientFill_2"/></defs><title>Asset 6</title><g id="Layer_2" data-name="Layer 2"><g id="icon_badge" data-name="icon badge"><path class="cls-1" d="M5.32,39V36.23c-1.49.24-2.47.47-3.1.63a1.35,1.35,0,0,1-.29,0,1.06,1.06,0,0,1-1.09-1L0,25.4v0a1,1,0,0,1,.85-1c.71-.15,2.2-.43,4.47-.74V16.27L16,10.12a9.2,9.2,0,0,1-.06-1,9.08,9.08,0,1,1,18.16,0,9.2,9.2,0,0,1-.06,1l10.66,6.15v7.38c2.27.31,3.76.59,4.47.74a1,1,0,0,1,.85,1v0l-.84,10.51a1,1,0,0,1-.36.72,1.13,1.13,0,0,1-.73.27h0a1.35,1.35,0,0,1-.29,0c-.63-.16-1.61-.39-3.1-.63V39L25,50.35Z"/><polygon class="cls-2" points="44.17 38.7 44.17 16.56 25 5.49 5.83 16.56 5.83 38.7 25 49.77 44.17 38.7"/><polygon class="cls-3" points="43.16 38.11 43.16 17.14 25 6.66 6.84 17.14 6.84 38.11 25 48.6 43.16 38.11"/><path class="cls-4" d="M48.65,35.88a.58.58,0,0,1-.75.49c-2-.52-7.77-1.79-22.9-1.79S4.14,35.85,2.1,36.37a.58.58,0,0,1-.75-.49L.51,25.38A.51.51,0,0,1,1,24.89C2.88,24.48,11,23,25,23s22.12,1.5,24,1.91a.51.51,0,0,1,.44.49Z"/><path class="cls-3" d="M10.05,30.13c-.11-.74-.23-1.64-.33-2.55h0c-.11.82-.27,1.73-.43,2.49l-.5,2.51-1.1.12-.92-2.34c-.29-.71-.59-1.57-.83-2.37h0c.06.85.13,1.81.17,2.59L6.2,33l-1.3.14-.27-6.27,1.87-.2.84,2c.27.7.55,1.45.76,2.17h0c.1-.74.22-1.59.35-2.3l.44-2.14,1.84-.2,1,6.19-1.37.15Z"/><path class="cls-3" d="M4.88,33.12v0L4.6,26.81l1.92-.21.84,2c.33.85.57,1.52.75,2.12.08-.6.21-1.47.35-2.25l.44-2.16,1.88-.2,1,6.24-1.43.15L10,30.14c-.09-.67-.22-1.56-.32-2.47-.1.76-.25,1.63-.42,2.4l-.5,2.53-1.14.12-.93-2.35c-.29-.73-.57-1.54-.78-2.24,0,.25,0,.52.05.78,0,.57.08,1.16.1,1.67L6.23,33Zm-.22-6.27.26,6.22,1.26-.14L6,30.58c0-.5-.06-1.09-.1-1.66q0-.48-.06-.93v0h.06v0c.21.73.51,1.59.82,2.37l.92,2.32,1.06-.11.49-2.5c.17-.8.33-1.71.44-2.48v0h.07v0c.1.94.23,1.86.33,2.55h0l.35,2.35,1.32-.14-1-6.14L9,26.39l-.44,2.12c-.15.8-.27,1.69-.36,2.3v0H8.08v0c-.19-.62-.43-1.31-.77-2.17l-.82-2Z"/><path class="cls-3" d="M13.85,26l.19,3.6c.06,1.07.5,1.6,1.23,1.56s1.12-.58,1.06-1.69l-.2-3.6,1.41-.07.19,3.5c.11,1.93-.82,2.9-2.45,3s-2.55-.73-2.66-2.72l-.19-3.49Z"/><path class="cls-3" d="M15.06,32.3a2.34,2.34,0,0,1-1.68-.59,3.22,3.22,0,0,1-.79-2.16L12.4,26,13.87,26l.2,3.63c.06,1,.47,1.58,1.19,1.53s1.1-.6,1-1.66l-.2-3.62,1.46-.08.2,3.53c.1,1.88-.76,2.92-2.48,3Zm-2.61-6.22.19,3.46a3.16,3.16,0,0,0,.78,2.13,2.36,2.36,0,0,0,1.86.58c1.69-.09,2.53-1.12,2.43-3l-.2-3.48-1.36.08.2,3.57c.06,1.09-.3,1.67-1.08,1.71s-1.19-.5-1.25-1.58L13.82,26Z"/><path class="cls-3" d="M19.07,30.54a3.65,3.65,0,0,0,1.58.35c.65,0,1-.29,1-.7s-.31-.6-1.07-.86c-1-.34-1.74-.9-1.76-1.81,0-1.07.85-1.9,2.33-1.93a3.73,3.73,0,0,1,1.6.28L22.44,27a2.79,2.79,0,0,0-1.31-.27c-.62,0-.91.3-.9.62s.36.57,1.18.86c1.11.38,1.65.95,1.67,1.83,0,1.05-.77,2-2.49,2a4.14,4.14,0,0,1-1.78-.35Z"/><path class="cls-3" d="M20.5,32.08a4,4,0,0,1-1.7-.34h0l.27-1.23h0a3.5,3.5,0,0,0,1.57.36c.61,0,1-.27,1-.68s-.27-.57-1.05-.83c-1.16-.38-1.76-1-1.77-1.84a1.7,1.7,0,0,1,.61-1.37,2.7,2.7,0,0,1,1.74-.59,3.92,3.92,0,0,1,1.61.28h0l-.3,1.2h0a2.92,2.92,0,0,0-1.3-.27,1.16,1.16,0,0,0-.67.19.51.51,0,0,0-.21.41c0,.38.36.55,1.17.83,1.14.4,1.66,1,1.68,1.86a1.75,1.75,0,0,1-.6,1.4,3,3,0,0,1-1.91.62Zm-1.66-.38a4,4,0,0,0,1.75.33c1.84,0,2.48-1,2.46-2s-.53-1.42-1.65-1.81c-.82-.29-1.19-.46-1.2-.88a.57.57,0,0,1,.23-.45,1.24,1.24,0,0,1,.7-.2,3.05,3.05,0,0,1,1.3.26l.27-1.1a3.93,3.93,0,0,0-1.57-.27,2.68,2.68,0,0,0-1.71.57,1.68,1.68,0,0,0-.59,1.34c0,.83.58,1.42,1.74,1.79.79.26,1.07.5,1.08.88s-.36.71-1,.73a3.62,3.62,0,0,1-1.56-.35Z"/><path class="cls-3" d="M25.26,26.84H23.58V25.64l4.81,0v1.19H26.68l0,5.07H25.24Z"/><path class="cls-3" d="M26.68,31.94H25.21v0l0-5.05H23.56V25.62h0l4.84,0v1.24H26.71Zm-1.42-.05h1.37l0-5.07h1.71V25.69l-4.77,0V26.8h1.68v0Z"/><path class="cls-3" d="M30.7,29.09l0,.93L28.25,30l0-.94Z"/><path class="cls-3" d="M30.7,30.05,28.22,30l0-1,2.49.06Zm-2.43-.11,2.39.06,0-.89-2.39-.06Z"/><path class="cls-3" d="M31.6,30.56a3.73,3.73,0,0,0,1.55.46c.65,0,1-.22,1-.63s-.27-.62-1-.93c-1-.41-1.67-1-1.63-1.93.05-1.06,1-1.84,2.46-1.77a3.86,3.86,0,0,1,1.58.39l-.37,1.13a3,3,0,0,0-1.3-.36c-.61,0-.92.24-.93.56s.32.59,1.12.94c1.08.46,1.57,1.06,1.53,1.94-.05,1.05-.9,1.9-2.61,1.82a4,4,0,0,1-1.76-.47Z"/><path class="cls-3" d="M33.23,32.21H33a4,4,0,0,1-1.76-.46h0l.36-1.21,0,0a3.71,3.71,0,0,0,1.54.46c.6,0,1-.2,1-.61s-.23-.59-1-.91C32,29,31.48,28.37,31.52,27.53a1.72,1.72,0,0,1,.7-1.33A2.66,2.66,0,0,1,34,25.74a3.8,3.8,0,0,1,1.59.39h0l-.39,1.17h0a3.19,3.19,0,0,0-1.29-.36c-.53,0-.89.19-.91.54s.32.57,1.11.91c1.11.48,1.59,1.08,1.55,2a1.77,1.77,0,0,1-.7,1.35A2.76,2.76,0,0,1,33.23,32.21Zm-1.94-.51a4,4,0,0,0,1.73.45,2.87,2.87,0,0,0,1.91-.48,1.71,1.71,0,0,0,.68-1.31c0-.87-.43-1.46-1.52-1.92-.81-.35-1.16-.55-1.14-1s.28-.62,1-.59a3.09,3.09,0,0,1,1.27.35l.36-1.08A3.8,3.8,0,0,0,34,25.79a2.63,2.63,0,0,0-1.75.45,1.65,1.65,0,0,0-.68,1.29c0,.83.49,1.46,1.61,1.91.77.32,1,.57,1,.95s-.41.69-1.05.66a3.7,3.7,0,0,1-1.53-.45Z"/><path class="cls-3" d="M40.37,29.92l-2.29-.18L38,31.22l2.56.21-.09,1.15-4-.31L37,26l3.85.31-.09,1.16-2.44-.2-.1,1.3,2.3.19Z"/><path class="cls-3" d="M40.45,32.61l-4-.32L36.93,26l3.9.31-.1,1.21-2.43-.2-.1,1.25,2.29.18L40.4,30l-2.3-.18L38,31.2l2.56.2Zm-4-.37,3.93.32.09-1.11-2.57-.21.12-1.53,2.3.19.09-1.1-2.3-.19.11-1.34,2.44.19.09-1.1L37,26.05Z"/><path class="cls-3" d="M45.35,30.5l-2.29-.28-.18,1.47,2.55.32-.14,1.15-4-.48.76-6.22,3.83.47-.14,1.15-2.42-.3-.16,1.3,2.29.27Z"/><path class="cls-3" d="M45.32,33.19l-4-.49v0l.76-6.24L46,26.9l-.15,1.21-2.42-.3-.15,1.24,2.28.28-.14,1.19-2.29-.27-.17,1.42,2.55.31Zm-4-.54,3.91.48.14-1.1-2.56-.31L43,30.19l2.29.28.13-1.09-2.29-.28.16-1.34,2.43.29.13-1.1-3.78-.46Z"/><path class="cls-5" d="M33.57,9.08A8.57,8.57,0,1,1,25,.51,8.57,8.57,0,0,1,33.57,9.08Z"/><path class="cls-6" d="M31.9,9.08A6.9,6.9,0,1,1,25,2.17,6.9,6.9,0,0,1,31.9,9.08Z"/><path class="cls-1" d="M20.9,11.22c-.54-.55-1-1-1.43-1.37l1.16-1.16.65.55,0,0a2.12,2.12,0,0,1,.63-2,1.74,1.74,0,0,1,1.95-.45l0,0a2.73,2.73,0,0,1,0-1.11,2.27,2.27,0,0,1,.61-1.05c.85-.85,2.08-.89,3.39.42l2.58,2.58L29.2,8.89,26.83,6.51c-.64-.63-1.22-.79-1.66-.36A1,1,0,0,0,25,7.27a2.18,2.18,0,0,0,.3.38l2.57,2.57-1.33,1.33L24.09,9.09c-.55-.55-1.12-.73-1.56-.29a1,1,0,0,0-.15,1.12,1.33,1.33,0,0,0,.29.41l2.55,2.55L23.89,14.2Z"/></g></g></svg>