<svg xmlns="http://www.w3.org/2000/svg" width="15" height="15" viewBox="0 0 15 15">
    <path fill="#FFF" fill-rule="nonzero" d="M14.6 13.88a.78.78 0 0 1-.24.56.74.74 0 0 1-.56.24.78.78 0 0 1-.57-.24l-2.89-2.91a5.92 5.92 0 0 1-3.83 1.32A6 6 0 0 1 2.07 11 6.08 6.08 0 0 1 .25 6.55a6.18 6.18 0 0 1 1.82-4.47A6.08 6.08 0 0 1 6.51.25a6 6 0 0 1 4.42 1.83 6.12 6.12 0 0 1 1.84 4.47 6.29 6.29 0 0 1-.14 1.35V8a5.78 5.78 0 0 1-1.15 2.44l2.89 2.91a.78.78 0 0 1 .23.53zM9.81 3.21a4.48 4.48 0 0 0-3.3-1.36A4.53 4.53 0 0 0 3.2 3.21a4.58 4.58 0 0 0-1.36 3.34A4.5 4.5 0 0 0 3.2 9.86a4.48 4.48 0 0 0 3.31 1.39A4.45 4.45 0 0 0 9.8 9.87a4.45 4.45 0 0 0 1.25-2.24 5.22 5.22 0 0 0 .11-1.06 4.61 4.61 0 0 0-1.35-3.36zm-3.3 8.29A4.76 4.76 0 0 1 3 10a4.79 4.79 0 0 1-1.41-3.45A4.84 4.84 0 0 1 3 3a4.78 4.78 0 0 1 3.51-1.4A4.7 4.7 0 0 1 10 3a4.82 4.82 0 0 1 1.45 3.51 5.13 5.13 0 0 1-.12 1.12A4.7 4.7 0 0 1 10 10a4.71 4.71 0 0 1-3.49 1.5zm0-9.4a4.23 4.23 0 0 0-3.13 1.29 4.29 4.29 0 0 0-1.29 3.16 4.24 4.24 0 0 0 1.29 3.14A4.21 4.21 0 0 0 6.51 11a4.18 4.18 0 0 0 3.11-1.3 4.16 4.16 0 0 0 1.2-2.14 4.17 4.17 0 0 0 .11-1 4.31 4.31 0 0 0-1.3-3.16 4.2 4.2 0 0 0-3.12-1.3zm3.85 9.1l3.05 3.06a.53.53 0 0 0 .77 0 .5.5 0 0 0 .17-.38.56.56 0 0 0-.17-.4l-3-3.06.14-.18a5.57 5.57 0 0 0 1.06-2.34v-.06c.1-.422.148-.855.14-1.29a5.89 5.89 0 0 0-1.76-4.29A5.78 5.78 0 0 0 6.51.5a5.84 5.84 0 0 0-4.26 1.76A5.92 5.92 0 0 0 .5 6.55a5.87 5.87 0 0 0 1.75 4.27 5.8 5.8 0 0 0 4.26 1.78 5.72 5.72 0 0 0 3.66-1.26l.19-.14zm3.44 3.73a1.08 1.08 0 0 1-.75-.31l-2.73-2.75a6.26 6.26 0 0 1-3.8 1.23 6.31 6.31 0 0 1-4.62-1.93A6.36 6.36 0 0 1 0 6.55a6.43 6.43 0 0 1 1.89-4.64A6.34 6.34 0 0 1 6.51 0a6.27 6.27 0 0 1 4.6 1.91A6.36 6.36 0 0 1 13 6.55 6.07 6.07 0 0 1 12.87 8a6 6 0 0 1-1.07 2.43l2.74 2.75c.2.2.31.47.31.75a1 1 0 0 1-.31.74 1 1 0 0 1-.74.26z"/>
</svg>
